<?xml version="1.0" ?><!DOCTYPE svg  PUBLIC '-//W3C//DTD SVG 1.1//EN'  'http://www.w3.org/Graphics/SVG/1.1/DTD/svg11.dtd'><svg height="100%" style="fill-rule:evenodd;clip-rule:evenodd;stroke-linejoin:round;stroke-miterlimit:2;" version="1.1" viewBox="0 0 32 32" width="100%" xml:space="preserve" xmlns="http://www.w3.org/2000/svg" xmlns:serif="http://www.serif.com/" xmlns:xlink="http://www.w3.org/1999/xlink"><path d="M22.001,18.014c0,-1.657 -1.343,-3 -3,-3c-1.742,0 -4.257,0 -6,0c-1.656,0 -3,1.343 -3,3l0,5.986c0,0.552 0.448,1 1,1l10,0c0.553,0 1,-0.448 1,-1l0,-5.986Z"/><path d="M23.772,17.014c0.149,0.542 0.229,1.118 0.229,1.715l0,6.842c0,0.51 -0.097,0.994 -0.272,1.429l6.271,0c0.552,0 1,-0.448 1,-1l-0,-5.986c-0,-1.657 -1.343,-3 -3,-3l-4.228,0Z"/><path d="M8.23,17.014l-4.23,0c-0.796,0 -1.559,0.316 -2.121,0.879c-0.563,0.562 -0.879,1.325 -0.879,2.121l-0,5.986c-0,0.552 0.448,1 1,1l6.274,0c-0.175,-0.435 -0.273,-0.919 -0.273,-1.429l0,-6.842c0,-0.597 0.081,-1.173 0.229,-1.715Z"/><circle cx="7" cy="11.002" r="4"/><circle cx="16.001" cy="9.002" r="4"/><circle cx="25" cy="11.002" r="4"/></svg>