<?xml version="1.0" ?><!DOCTYPE svg  PUBLIC '-//W3C//DTD SVG 1.1//EN'  'http://www.w3.org/Graphics/SVG/1.1/DTD/svg11.dtd'><svg height="100%" style="fill-rule:evenodd;clip-rule:evenodd;stroke-linejoin:round;stroke-miterlimit:2;" version="1.1" viewBox="0 0 32 32" width="100%" xml:space="preserve" xmlns="http://www.w3.org/2000/svg" xmlns:serif="http://www.serif.com/" xmlns:xlink="http://www.w3.org/1999/xlink"><path d="M6,29l22,-0c0.552,0 1,-0.448 1,-1l-0,-18c0,-0.552 -0.448,-1 -1,-1l-4,-0c-0.552,-0 -1,0.448 -1,1l-0,17l-2,-0l-0,-12c0,-0.552 -0.448,-1 -1,-1l-4,-0c-0.552,-0 -1,0.448 -1,1l-0,12l-2,-0l0,-7.988c0,-0.552 -0.448,-1 -1,-1l-4,0c-0.552,0 -1,0.448 -1,1l0,7.988l-1,-0c-0.265,0 -0.52,-0.105 -0.707,-0.293c-0.188,-0.187 -0.293,-0.442 -0.293,-0.707l0,-22c-0,-0.552 -0.448,-1 -1,-1c-0.552,-0 -1,0.448 -1,1l0,22c-0,0.796 0.316,1.559 0.879,2.121c0.562,0.563 1.325,0.879 2.121,0.879Z"/><path d="M10.003,4l-0.003,0c-1.656,0 -3,1.344 -3,3c0,1.656 1.344,3 3,3c0,0 2,-0 2,-0c0.552,-0 1,0.448 1,1c-0,0.552 -0.448,1 -1,1c-0,-0 -3,-0 -3,-0c-0.552,0 -1,0.448 -1,1c0,0.552 0.448,1 1,1l1.003,-0l0,1c0,0.552 0.449,1 1,1c0.552,0 1,-0.448 1,-1l0,-1c1.655,-0.002 2.997,-1.345 2.997,-3c-0,-1.656 -1.344,-3 -3,-3c-0,-0 -2,0 -2,0c-0.552,0 -1,-0.448 -1,-1c0,-0.552 0.448,-1 1,-1l3,0c0.552,0 1,-0.448 1,-1c0,-0.552 -0.448,-1 -1,-1l-0.997,0l0,-1c0,-0.552 -0.448,-1 -1,-1c-0.551,0 -1,0.448 -1,1l0,1Z"/></svg>